# ProBuilder 5.1.1
# https://unity3d.com/unity/features/worldbuilding/probuilder
# 11/1/2023 10:41:52 PM

mtllib ./Cube1.mtl
o Cube1

g Cube
v -10 0 1.900002
v -35 0 1.900002
v -10 2.4 1.900002
v -35 2.4 1.900002
v -62 0 1.900002
v -62 0 -5.099998
v -62 2.4 1.900002
v -62 2.4 -5.099998
v -35 0 -5.099998
v -10 0 -5.099998
v -35 2.4 -5.099998
v -10 2.4 -5.099998
v 83 0 -5.099998
v 83 0 1.900002
v 83 2.4 -5.099998
v 83 2.4 1.900002
v -43 0 1.900002
v -43 0 -5.099998
v -43 2.4 1.900002
v -35 0 -10.1
v -35 2.4 -10.1
v -43 0 -10.1
v -43 2.4 -10.1
v -43 2.4 -5.099998
v -45 0 1.900002
v -45 0 -5.099998
v -45 2.4 1.900002
v -43 0 -19.1
v -43 2.4 -19.1
v -45 0 -19.1
v -45 2.4 -19.1
v -45 2.4 -5.099998
v -50 0 1.900002
v -50 0 -5.099998
v -50 2.4 1.900002
v -45 0 -7.099998
v -45 2.4 -7.099998
v -50 0 -7.099998
v -50 2.4 -7.099998
v -50 2.4 -5.099998
v -35 0 -7.099998
v -35 2.4 -7.099998
v -51.18778 2.4 -5.099998
v -51.18778 0 -5.099998
v -51.18778 2.4 -7.099998
v -51.18778 0 -7.099998
v -43 0 -7.099998
v -43 2.4 -7.099998
v -45 0 -10.1
v -45 2.4 -10.1
v -43 0 -15.1
v -43 2.4 -15.1
v -45 0 -15.1
v -45 2.4 -15.1
v -32 0 -15.1
v -32 2.4 -15.1
v -32 0 -25.1
v -32 2.4 -25.1
v -41 0 -15.1
v -41 2.4 -15.1
v -41 0 -19.1
v -41 2.4 -19.1
v -3 0 -5.099998
v -3 0 1.900002
v -10 2.4 -8.099998
v -10 0 -8.099998
v -3 2.4 -8.099998
v -3 0 -8.099998
v -3 2.4 1.900002
v -3 2.4 -5.099998
v 2 0 -5.099998
v 2 0 1.900002
v -3 2.4 -24.1
v -3 0 -24.1
v 2 2.4 -24.1
v 2 0 -24.1
v 2 2.4 1.900002
v 2 2.4 -5.099998
v 14 0 -5.099998
v 17 0 1.900002
v 2 2.4 -8.099998
v 2 0 -8.099998
v 14 2.4 -8.099998
v 14 0 -8.099998
v 17 2.4 1.900002
v 14 2.4 -5.099998
v 17 0 -5.099998
v 17 2.4 -5.099998
v 17 0 -8.099998
v 17 2.4 -8.099998
v 20 0 -5.099998
v 20 0 1.900002
v 20 2.4 -5.099998
v 20 2.4 1.900002
v 28 0 -5.099998
v 28 0 1.900002
v 20 2.4 -33.1
v 20 0 -33.1
v 28 2.4 -33.1
v 28 0 -33.1
v 28 2.4 1.900002
v 28 2.4 -5.099998
v 20 2.4 -25.1
v 20 0 -25.1
v 28 2.4 -25.1
v 28 0 -25.1
v 13 2.4 -25.1
v 13 0 -25.1
v 13 2.4 -28.1
v 13 0 -28.1
v 28 2.4 -28.1
v 20 2.4 -28.1
v 20 0 -28.1
v 28 0 -28.1
v -9.98838 2.4 -30.1
v -9.98838 0 -30.1
v -9.98838 2.4 -33.1
v -9.98838 0 -33.1
v 28 2.4 -30.1
v 20 2.4 -30.1
v 20 0 -30.1
v 28 0 -30.1
v 20 2.392332 -30.1
v 28 2.392332 -30.1
v 28 2.392332 -28.1
v 20 2.392332 -28.1
v 9 2.4 -30.1
v 9 0 -30.1
v 9 2.4 -33.1
v 9 0 -33.1
v 9 2.4 -12.1
v 9 0 -12.1
v 5 2.4 -12.1
v 5 0 -12.1
v 5 2.4 -33.1
v 5 2.4 -30.1
v 5 0 -30.1
v 5 0 -33.1
v 9 2.4 -21.1
v 9 0 -21.1
v 5 2.4 -21.1
v 5 0 -21.1
v 18 2.4 -21.1
v 18 0 -21.1
v 18 2.4 -16.1
v 18 0 -16.1
v 12 2.4 -21.1
v 12 0 -21.1
v 12 2.4 -12.1
v 12 0 -12.1
v 14 2.4 -10.1
v 14 0 -10.1
v 17 2.4 -13.1
v 17 0 -13.1
v -6 2.4 -30.1
v -6 0 -30.1
v -6 2.4 -33.1
v -6 0 -33.1
v -6 2.4 -15.1
v -6 0 -15.1
v -9.98838 2.4 -15.1
v -9.98838 0 -15.1
v -37 0 -25.1
v -37 0 -15.1
v -37 2.4 -15.1
v -37 2.4 -25.1
v -37 2.4 -30.1
v -37 0 -30.1
v -32 2.4 -30.1
v -32 0 -30.1
v -37 0.3999996 -15.1
v -37 0.3999996 -19.1
v -51.18468 2.4 -25.1
v -51.18468 0 -25.1
v -51.18468 2.4 -30.1
v -51.18468 0 -30.1
v -49 2.4 -25.1
v -49 0 -25.1
v -51 2.4 -30.1
v -51 0 -30.1
v -49 2.4 -11.1
v -49 0 -11.1
v -51.18468 2.4 -11.1
v -51.18468 0 -11.1

vt -10 0
vt -35 0
vt -10 2.4
vt -35 2.4
vt 1.900002 0
vt -5.099998 0
vt 1.900002 2.4
vt -5.099998 2.4
vt 35 0
vt 10 0
vt 35 2.4
vt 10 2.4
vt 5.099998 0
vt -1.900002 0
vt 5.099998 2.4
vt -1.900002 2.4
vt 10 1.900002
vt 35 1.900002
vt 10 -5.099998
vt 35 -5.099998
vt -10 -5.099998
vt -35 -5.099998
vt -10 1.900002
vt -35 1.900002
vt -43 1.900002
vt -43 -5.099998
vt -43 2.4
vt -43 0
vt 43 0
vt 43 2.4
vt 43 -5.099998
vt 43 1.900002
vt -45 1.900002
vt -45 -5.099998
vt -45 2.4
vt -45 0
vt 45 0
vt 45 2.4
vt 45 -5.099998
vt 45 1.900002
vt -50 1.900002
vt -50 -5.099998
vt -50 2.4
vt -50 0
vt 50 0
vt 50 2.4
vt 50 -5.099998
vt 50 1.900002
vt -62 1.900002
vt -62 -5.099998
vt -62 2.4
vt -62 0
vt 62 0
vt 62 2.4
vt 62 -5.099998
vt 62 1.900002
vt 7.099998 0
vt 7.099998 2.4
vt -50 -7.099998
vt -45 -7.099998
vt 45 -7.099998
vt 50 -7.099998
vt -7.099998 2.4
vt -7.099998 0
vt -43 -7.099998
vt 43 -7.099998
vt -35 -7.099998
vt 35 -7.099998
vt -45 -10.1
vt -43 -10.1
vt 43 -10.1
vt 45 -10.1
vt -10.1 2.4
vt -10.1 0
vt 10.1 0
vt 10.1 2.4
vt -35 -10.1
vt 35 -10.1
vt 15.1 0
vt 15.1 2.4
vt -45 -15.1
vt -43 -15.1
vt 43 -15.1
vt 45 -15.1
vt -15.1 2.4
vt -15.1 0
vt 25.1 0
vt 25.1 2.4
vt -45 -19.1
vt -43 -19.1
vt 43 -19.1
vt 45 -19.1
vt -19.1 2.4
vt -19.1 0
vt -41 0
vt -41 2.4
vt -41 -19.1
vt -41 -15.1
vt 41 -15.1
vt 41 -19.1
vt 41 2.4
vt 41 0
vt -3 -5.099998
vt -3 1.900002
vt 3 2.4
vt 3 0
vt -3 0
vt -3 2.4
vt 3 1.900002
vt 3 -5.099998
vt 2 -5.099998
vt 2 1.900002
vt -2 2.4
vt -2 0
vt 2 0
vt 2 2.4
vt -2 1.900002
vt -2 -5.099998
vt 14 -5.099998
vt 17 1.900002
vt -14 2.4
vt -14 0
vt 17 0
vt 17 2.4
vt -17 1.900002
vt -14 -5.099998
vt -8.099998 2.4
vt -8.099998 0
vt 3 -8.099998
vt 10 -8.099998
vt -10 -8.099998
vt -3 -8.099998
vt -2 -8.099998
vt 2 -8.099998
vt -14 -8.099998
vt 14 -8.099998
vt 8.099998 0
vt 8.099998 2.4
vt -24.1 2.4
vt -24.1 0
vt -2 -24.1
vt 3 -24.1
vt -3 -24.1
vt 2 -24.1
vt 24.1 0
vt 24.1 2.4
vt 20 -5.099998
vt 20 1.900002
vt -20 2.4
vt -20 0
vt 20 0
vt 20 2.4
vt -20 1.900002
vt -20 -5.099998
vt 28 -5.099998
vt 28 1.900002
vt -28 2.4
vt -28 0
vt 28 0
vt 28 2.4
vt -28 1.900002
vt -28 -5.099998
vt -25.1 2.4
vt -25.1 0
vt -28 -25.1
vt -20 -25.1
vt 20 -25.1
vt 28 -25.1
vt -28.1 2.4
vt -28.1 0
vt -28 -28.1
vt -20 -28.1
vt 20 -28.1
vt 28 -28.1
vt 28.1 0
vt 28.1 2.4
vt 13 2.4
vt 13 0
vt -13 -28.1
vt -13 -25.1
vt 13 -25.1
vt 13 -28.1
vt -13 0
vt -13 2.4
vt -30.1 2.4
vt -30.1 0
vt -33.1 2.4
vt -33.1 0
vt -28 -30.1
vt -20 -30.1
vt -28 -33.1
vt -20 -33.1
vt 20 -30.1
vt 28 -30.1
vt 20 -33.1
vt 28 -33.1
vt 30.1 0
vt 30.1 2.4
vt 33.1 0
vt 33.1 2.4
vt 20 2.392332
vt 28 2.392332
vt -28 2.392332
vt -20 2.392332
vt 9 2.4
vt 9 0
vt -9 -33.1
vt -9 -30.1
vt 9 -30.1
vt 9 -33.1
vt -9 0
vt -9 2.4
vt 5 2.4
vt 5 0
vt -5 -33.1
vt -5 -30.1
vt 5 -30.1
vt 5 -33.1
vt -5 0
vt -5 2.4
vt 21.1 2.4
vt 21.1 0
vt -5 -21.1
vt -9 -21.1
vt 9 -21.1
vt 5 -21.1
vt -21.1 0
vt -21.1 2.4
vt 16.1 2.4
vt 16.1 0
vt -5 -12.1
vt -9 -12.1
vt 9 -12.1
vt 5 -12.1
vt -12.1 0
vt -12.1 2.4
vt -12 2.4
vt -12 0
vt -12 -12.1
vt -12 -21.1
vt 12 -21.1
vt 12 -12.1
vt 12 0
vt 12 2.4
vt -18 2.4
vt -18 0
vt -18 -16.1
vt -18 -21.1
vt 18 -21.1
vt 18 -16.1
vt 16.69648 0
vt 16.69648 2.4
vt 23.90758 0
vt 23.90758 2.4
vt 14 0
vt 14 2.4
vt 17 -8.099998
vt 17 -5.099998
vt -17 -5.099998
vt -17 -8.099998
vt -17.04127 2.4
vt -17.04127 0
vt -21.28391 2.4
vt -21.28391 0
vt -17 -13.1
vt -14 -10.1
vt 14 -10.1
vt 17 -13.1
vt 13.1 0
vt 13.1 2.4
vt -6 2.4
vt -6 0
vt 6 -33.1
vt 6 -30.1
vt -6 -30.1
vt -6 -33.1
vt 6 0
vt 6 2.4
vt -9.98838 2.4
vt -9.98838 0
vt 9.98838 -33.1
vt 9.98838 -30.1
vt -9.98838 -30.1
vt -9.98838 -33.1
vt 9.98838 0
vt 9.98838 2.4
vt 9.98838 -15.1
vt 6 -15.1
vt -6 -15.1
vt -9.98838 -15.1
vt -37 -25.1
vt -37 -15.1
vt -37 0
vt -37 2.4
vt -32 0
vt -32 2.4
vt -32 -25.1
vt -32 -15.1
vt 37 -15.1
vt 37 -25.1
vt 32 -15.1
vt 32 -25.1
vt 37 2.4
vt 37 0
vt 32 2.4
vt 32 0
vt -15.1 0.3999996
vt -19.1 0.3999996
vt 32 -30.1
vt 37 -30.1
vt -37 -30.1
vt -32 -30.1
vt -49 2.4
vt -49 0
vt 51 -30.1
vt 49 -25.1
vt -49 -25.1
vt -51 -30.1
vt 51 0
vt 51 2.4
vt -51.18468 2.4
vt -51.18468 0
vt 51.18468 -30.1
vt 51.18468 -25.1
vt -51.18468 -25.1
vt -51.18468 -30.1
vt 51.18468 0
vt 51.18468 2.4
vt 11.1 2.4
vt 11.1 0
vt 51.18468 -11.1
vt 49 -11.1
vt -49 -11.1
vt -51.18468 -11.1
vt -11.1 0
vt -11.1 2.4
vt -51.18778 2.4
vt -51.18778 0
vt 51.18778 -7.099998
vt 51.18778 -5.099998
vt -51.18778 -5.099998
vt -51.18778 -7.099998
vt 51.18778 0
vt 51.18778 2.4
vt 83 -5.099998
vt 83 1.900002
vt -83 2.4
vt -83 0
vt 83 0
vt 83 2.4
vt -83 1.900002
vt -83 -5.099998

vn 0 0 1
vn -1 0 0
vn 0 0 -1
vn 1 0 0
vn 0 1 0
vn 0 -1 0
vn 0 0 0
vn 0.5547002 0 0.8320503
vn -0.7071068 0 -0.7071068

usemtl ProBuilderDefault
f 3/3/1 4/4/1 2/2/1 1/1/1
f 7/7/2 8/8/2 6/6/2 5/5/2
f 11/11/3 12/12/3 10/10/3 9/9/3
f 15/15/4 16/16/4 14/14/4 13/13/4
f 12/19/5 11/20/5 4/18/5 3/17/5
f 1/23/6 2/24/6 9/22/6 10/21/6
f 17/25/6 18/26/6 9/22/6 2/24/6
f 19/27/1 17/28/1 2/2/1 4/4/1
f 22/29/3 23/30/3 21/11/3 20/9/3
f 24/31/5 19/32/5 4/18/5 11/20/5
f 25/33/6 26/34/6 18/26/6 17/25/6
f 27/35/1 25/36/1 17/28/1 19/27/1
f 30/37/3 31/38/3 29/30/3 28/29/3
f 32/39/5 27/40/5 19/32/5 24/31/5
f 33/41/6 34/42/6 26/34/6 25/33/6
f 35/43/1 33/44/1 25/36/1 27/35/1
f 38/45/3 39/46/3 37/38/3 36/37/3
f 40/47/5 35/48/5 27/40/5 32/39/5
f 5/49/6 6/50/6 34/42/6 33/41/6
f 7/51/1 5/52/1 33/44/1 35/43/1
f 6/53/3 8/54/3 40/46/3 34/45/3
f 8/55/5 7/56/5 35/48/5 40/47/5
f 41/57/4 42/58/4 11/15/4 9/13/4
f 38/59/6 36/60/6 26/34/6 34/42/6
f 37/61/5 39/62/5 40/47/5 32/39/5
f 45/63/2 46/64/2 44/6/2 43/8/2
f 36/60/6 47/65/6 18/26/6 26/34/6
f 48/66/5 37/61/5 32/39/5 24/31/5
f 47/65/6 41/67/6 9/22/6 18/26/6
f 42/68/5 48/66/5 24/31/5 11/20/5
f 49/69/6 22/70/6 47/65/6 36/60/6
f 23/71/5 50/72/5 37/61/5 48/66/5
f 50/73/2 49/74/2 36/64/2 37/63/2
f 20/75/4 21/76/4 42/58/4 41/57/4
f 22/70/6 20/77/6 41/67/6 47/65/6
f 21/78/5 23/71/5 48/66/5 42/68/5
f 51/79/4 52/80/4 23/76/4 22/75/4
f 53/81/6 51/82/6 22/70/6 49/69/6
f 52/83/5 54/84/5 50/72/5 23/71/5
f 54/85/2 53/86/2 49/74/2 50/73/2
f 57/87/4 58/88/4 56/80/4 55/79/4
f 30/89/6 28/90/6 51/82/6 53/81/6
f 29/91/5 31/92/5 54/84/5 52/83/5
f 31/93/2 30/94/2 53/86/2 54/85/2
f 59/95/1 60/96/1 52/27/1 51/28/1
f 61/97/6 59/98/6 51/82/6 28/90/6
f 60/99/5 62/100/5 29/91/5 52/83/5
f 62/101/3 61/102/3 28/29/3 29/30/3
f 63/103/6 64/104/6 1/23/6 10/21/6
f 67/105/3 68/106/3 66/10/3 65/12/3
f 64/107/1 69/108/1 3/3/1 1/1/1
f 69/109/5 70/110/5 12/19/5 3/17/5
f 71/111/6 72/112/6 64/104/6 63/103/6
f 75/113/3 76/114/3 74/106/3 73/105/3
f 72/115/1 77/116/1 69/108/1 64/107/1
f 77/117/5 78/118/5 70/110/5 69/109/5
f 79/119/6 80/120/6 72/112/6 71/111/6
f 83/121/3 84/122/3 82/114/3 81/113/3
f 80/123/1 85/124/1 77/116/1 72/115/1
f 85/125/5 86/126/5 78/118/5 77/117/5
f 65/127/2 66/128/2 10/6/2 12/8/2
f 67/129/5 65/130/5 12/19/5 70/110/5
f 66/131/6 68/132/6 63/103/6 10/21/6
f 81/133/5 67/129/5 70/110/5 78/118/5
f 68/132/6 82/134/6 71/111/6 63/103/6
f 83/135/5 81/133/5 78/118/5 86/126/5
f 82/134/6 84/136/6 79/119/6 71/111/6
f 89/137/4 90/138/4 88/15/4 87/13/4
f 73/139/2 74/140/2 68/128/2 67/127/2
f 75/141/5 73/142/5 67/129/5 81/133/5
f 74/143/6 76/144/6 82/134/6 68/132/6
f 76/145/4 75/146/4 81/138/4 82/137/4
f 91/147/6 92/148/6 80/120/6 79/119/6
f 93/149/3 91/150/3 79/122/3 86/121/3
f 92/151/1 94/152/1 85/124/1 80/123/1
f 94/153/5 93/154/5 86/126/5 85/125/5
f 95/155/6 96/156/6 92/148/6 91/147/6
f 99/157/3 100/158/3 98/150/3 97/149/3
f 96/159/1 101/160/1 94/152/1 92/151/1
f 101/161/5 102/162/5 93/154/5 94/153/5
f 103/163/2 104/164/2 91/6/2 93/8/2
f 105/165/5 103/166/5 93/154/5 102/162/5
f 104/167/6 106/168/6 95/155/6 91/147/6
f 106/87/4 105/88/4 102/15/4 95/13/4
f 109/169/2 110/170/2 108/164/2 107/163/2
f 111/171/5 112/172/5 103/166/5 105/165/5
f 113/173/6 114/174/6 106/168/6 104/167/6
f 114/175/4 111/176/4 105/88/4 106/87/4
f 107/177/1 108/178/1 104/151/1 103/152/1
f 109/179/5 107/180/5 103/166/5 112/172/5
f 108/181/6 110/182/6 113/173/6 104/167/6
f 110/183/3 109/184/3 112/149/3 113/150/3
f 117/187/2 118/188/2 116/186/2 115/185/2
f 99/191/5 97/192/5 120/190/5 119/189/5
f 98/195/6 100/196/6 122/194/6 121/193/6
f 100/199/4 99/200/4 119/198/4 122/197/4
f 124/202/1 123/201/1 121/151/1 122/159/1
f 126/204/3 125/203/3 114/158/3 113/150/3
f 111/171/7 112/172/7 112/172/7 111/171/7
f 127/205/1 128/206/1 121/151/1 120/152/1
f 129/207/5 127/208/5 120/190/5 97/192/5
f 128/209/6 130/210/6 98/195/6 121/193/6
f 130/211/3 129/212/3 97/149/3 98/150/3
f 133/213/1 134/214/1 132/206/1 131/205/1
f 135/215/5 136/216/5 127/208/5 129/207/5
f 137/217/6 138/218/6 130/210/6 128/209/6
f 138/219/3 135/220/3 129/212/3 130/211/3
f 139/221/4 140/222/4 128/197/4 127/198/4
f 141/223/5 139/224/5 127/208/5 136/216/5
f 140/225/6 142/226/6 137/217/6 128/209/6
f 142/227/2 141/228/2 136/185/2 137/186/2
f 145/229/4 146/230/4 144/222/4 143/221/4
f 133/231/5 131/232/5 139/224/5 141/223/5
f 132/233/6 134/234/6 142/226/6 140/225/6
f 134/235/2 133/236/2 141/228/2 142/227/2
f 147/237/3 148/238/3 140/211/3 139/212/3
f 149/239/5 147/240/5 139/224/5 131/232/5
f 148/241/6 150/242/6 132/233/6 140/225/6
f 150/243/1 149/244/1 131/205/1 132/206/1
f 143/245/3 144/246/3 148/238/3 147/237/3
f 145/247/5 143/248/5 147/240/5 149/239/5
f 144/249/6 146/250/6 150/242/6 148/241/6
f 146/253/8 145/254/8 149/252/8 150/251/8
f 87/123/1 88/124/1 86/256/1 79/255/1
f 89/257/6 87/258/6 79/119/6 84/136/6
f 88/259/5 90/260/5 83/135/5 86/126/5
f 153/263/9 154/264/9 152/262/9 151/261/9
f 151/73/2 152/74/2 84/128/2 83/127/2
f 153/265/5 151/266/5 83/135/5 90/260/5
f 152/267/6 154/268/6 89/257/6 84/136/6
f 154/269/4 153/270/4 90/138/4 89/137/4
f 155/271/1 156/272/1 137/214/1 136/213/1
f 157/273/5 155/274/5 136/216/5 135/215/5
f 156/275/6 158/276/6 138/218/6 137/217/6
f 158/277/3 157/278/3 135/220/3 138/219/3
f 161/279/1 162/280/1 160/272/1 159/271/1
f 117/281/5 115/282/5 155/274/5 157/273/5
f 116/283/6 118/284/6 158/276/6 156/275/6
f 118/285/3 117/286/3 157/278/3 158/277/3
f 159/80/4 160/79/4 156/197/4 155/198/4
f 161/287/5 159/288/5 155/274/5 115/282/5
f 160/289/6 162/290/6 116/283/6 156/275/6
f 162/86/2 161/85/2 115/185/2 116/186/2
f 163/291/6 164/292/6 59/98/6 61/97/6
f 55/295/1 56/296/1 165/294/1 164/293/1
f 57/297/6 55/298/6 164/292/6 163/291/6
f 56/301/5 58/302/5 166/300/5 165/299/5
f 169/305/3 170/306/3 168/304/3 167/303/3
f 172/308/2 171/307/2 165/85/2 166/163/2
f 175/185/2 176/186/2 174/164/2 173/163/2
f 169/309/5 167/310/5 166/300/5 58/302/5
f 168/311/6 170/312/6 57/297/6 163/291/6
f 170/197/4 169/198/4 58/88/4 57/87/4
f 177/313/1 178/314/1 163/293/1 166/294/1
f 179/315/5 177/316/5 166/300/5 167/310/5
f 178/317/6 180/318/6 168/311/6 163/291/6
f 180/319/3 179/320/3 167/303/3 168/304/3
f 183/321/1 184/322/1 182/314/1 181/313/1
f 175/323/5 173/324/5 177/316/5 179/315/5
f 174/325/6 176/326/6 180/318/6 178/317/6
f 176/327/3 175/328/3 179/320/3 180/319/3
f 181/329/4 182/330/4 178/87/4 177/88/4
f 183/331/5 181/332/5 177/316/5 173/324/5
f 182/333/6 184/334/6 174/325/6 178/317/6
f 184/335/2 183/336/2 173/163/2 174/164/2
f 43/337/1 44/338/1 34/44/1 40/43/1
f 45/339/5 43/340/5 40/47/5 39/62/5
f 44/341/6 46/342/6 38/59/6 34/42/6
f 46/343/3 45/344/3 39/46/3 38/45/3
f 174/324/7 173/324/7 173/324/7 174/324/7
f 184/331/7 174/324/7 174/324/7 184/331/7
f 173/324/7 183/331/7 183/331/7 173/324/7
f 183/331/7 184/331/7 184/331/7 183/331/7
f 13/345/6 14/346/6 96/156/6 95/155/6
f 15/347/3 13/348/3 95/158/3 102/157/3
f 14/349/1 16/350/1 101/160/1 96/159/1
f 16/351/5 15/352/5 102/162/5 101/161/5

