# ProBuilder 5.1.1
# https://unity3d.com/unity/features/worldbuilding/probuilder
# 11/1/2023 10:42:11 PM

mtllib ./Cube3.mtl
o Cube3

g Cube (2)
v 5 0 11.7
v -5 0 11.7
v 5 2.4 11.7
v -5 2.4 11.7
v -5 0 1.7
v -5 2.4 1.7
v -5 0 -6.3
v 5 0 -6.3
v -5 2.4 -6.3
v 5 2.4 -6.3
v 31 0 1.7
v 31 0 11.7
v 31 2.4 1.7
v 31 2.4 11.7
v 5 2.4 1.7
v 5 0 1.7
v -46 2.4 1.7
v -46 0 1.7
v -50 2.4 -6.3
v -50 0 -6.3
v 62 0 1.7
v 62 2.4 1.7
v 62 0 -6.3
v 62 2.4 -6.3
v -20 2.4 1.7
v -20 0 1.7
v -20 2.4 -6.3
v -20 0 -6.3
v -20 2.4 15.7
v -20 0 15.7
v -25 2.4 15.7
v -25 0 15.7
v -37 2.4 -6.3
v -33 2.4 1.7
v -33 0 1.7
v -37 0 -6.3
v -20 2.4 6.7
v -20 0 6.7
v -29 2.4 6.7
v -29 0 6.7
v 11 0 1.7
v 11 0 11.7
v 11 0 -6.3
v 5 0 14.7
v 5 2.4 14.7
v 11 0 14.7
v 11 2.4 14.7
v 11 2.4 11.7
v 11 2.4 1.7
v 11 2.4 -6.3
v 18 2.4 11.7
v 18 0 11.7
v 18 2.4 14.7
v 18 0 14.7
v 15 2.4 11.7
v 15 2.4 1.7
v 15 2.4 14.7
v 15 0 11.7
v 15 0 14.7
v 11 0 16.7
v 11 2.4 16.7
v 15 0 16.7
v 15 2.4 16.7
v 15 0 1.7
v 15 0 -6.3
v 15 2.4 -6.3
v 18 2.4 16.7
v 18 0 16.7
v 18 2.4 1.7
v 18 0 1.7
v 18 0 -6.3
v 18 2.4 -6.3
v 15 0 30.7
v 15 2.4 30.7
v 18 0 30.7
v 18 2.4 30.7
v 15 0 21.7
v 15 2.4 21.7
v 18 0 21.7
v 18 2.4 21.7
v 31 0 -6.3
v 31 2.4 -6.3
v 18 0 26.7
v 15 0 26.7
v -80 0 26.7
v -80 2.4 26.7
v -80 0 30.7
v -80 2.4 30.7
v 15 2.4 26.7
v 18 2.4 26.7
v 55 2.4 26.7
v 55 0 26.7
v 55 2.4 30.7
v 55 0 30.7
v 18 -1.6 21.7
v 15 -1.6 21.7
v 15 -1.6 26.7
v 18 -1.6 26.7
v 24 2.4 26.7
v 24 0 26.7
v 24 2.4 30.7
v 24 0 30.7
v 11 0 26.7
v 11 2.4 26.7
v 11 0 30.7
v 11 2.4 30.7
v 11 0 19.7
v 11 2.4 19.7
v 2 0 19.7
v 2 2.4 19.7
v 2 0 30.7
v 2 0 26.7
v 2 2.4 26.7
v 2 2.4 30.7
v 2 0 14.7
v 2 2.4 14.7
v -6 0 14.7
v -6 2.4 14.7
v -6 0 30.7
v -6 0 26.7
v -6 2.4 26.7
v -6 2.4 30.7
v -6 0 19.7
v -6 2.4 19.7
v -14 2.4 26.7
v -14 0 26.7
v -14 2.4 19.7
v -14 0 19.7
v -14 2.4 14.7
v -14 0 14.7
v -14 0 30.7
v -14 2.4 30.7
v -9 2.4 19.7
v -9 0 19.7
v -9 2.4 14.7
v -9 0 14.7
v -9 0 7.7
v -9 2.4 7.7
v -14 0 7.7
v -14 2.4 7.7
v -33 0 26.7
v -33 2.4 26.7
v -33 0 30.7
v -33 2.4 30.7
v -33 0 14.7
v -33 2.4 14.7
v -38 0 14.7
v -38 2.4 14.7
v -38 0 30.7
v -38 0 26.7
v -38 2.4 26.7
v -38 2.4 30.7
v -38 0 6.7
v -38 2.4 6.7
v -44 0 6.7
v -44 2.4 6.7
v -44 0 30.7
v -44 0 26.7
v -44 2.4 26.7
v -44 2.4 30.7
v -44 0 14.7
v -44 2.4 14.7
v -49 0 26.7
v -49 2.4 26.7
v -49 0 30.7
v -49 2.4 30.7
v -49 0 16.7
v -49 2.4 16.7
v -58 0 16.7
v -58 2.4 16.7
v -58 0 30.7
v -58 0 26.7
v -58 2.4 26.7
v -58 2.4 30.7
v -69 0 26.7
v -69 2.4 26.7
v -69 0 30.7
v -69 2.4 30.7
v -69 0 21.7
v -69 2.4 21.7
v -80 0 21.7
v -80 2.4 21.7
v -66 2.4 17.7
v -66 0 17.7
v -62 2.4 15.7
v -62 0 15.7
v -73 2.4 5.7
v -69 2.4 3.7
v -69 -0.001211166 3.7
v -62 -0.001211166 15.7
v -66 -0.001211166 17.7
v -73 -0.001211166 5.7
v -69 0 3.7
v -73 0 5.7
v -80 -0.6000004 21.7
v -69 -0.6000004 21.7
v 24 2.4 18.7
v 24 0 18.7
v 37 2.4 18.7
v 37 0 18.7
v 37 2.4 30.7
v 37 2.4 26.7
v 37 0 26.7
v 37 0 30.7
v 37 2.4 8.7
v 37 0 8.7
v 55 2.4 8.7
v 55 0 8.7
v 55 2.4 18.7
v 55 0 18.7

vt 5 0
vt -5 0
vt 5 2.4
vt -5 2.4
vt 11.7 0
vt 1.7 0
vt 11.7 2.4
vt 1.7 2.4
vt -1.7 0
vt -11.7 0
vt -1.7 2.4
vt -11.7 2.4
vt -5 11.7
vt 5 11.7
vt -5 1.7
vt 5 1.7
vt -5 -6.3
vt 5 -6.3
vt -19.0513 2.4
vt -19.0513 0
vt -27.99557 2.4
vt -27.99557 0
vt 6.3 0
vt 6.3 2.4
vt -20 2.4
vt -20 0
vt 20 -6.3
vt 20 1.7
vt -20 1.7
vt -20 -6.3
vt 20 0
vt 20 2.4
vt -25 2.4
vt -25 0
vt 37 -6.3
vt 33 1.7
vt -33 1.7
vt -37 -6.3
vt 37 0
vt 37 2.4
vt -6.7 2.4
vt -6.7 0
vt 29 6.7
vt 20 6.7
vt -20 6.7
vt -29 6.7
vt -19.28746 0
vt -19.28746 2.4
vt -12.88434 0
vt -12.88434 2.4
vt -15.7 2.4
vt -15.7 0
vt 25 15.7
vt 20 15.7
vt -20 15.7
vt -25 15.7
vt -5.655478 0
vt -5.655478 2.4
vt 4.193379 0
vt 4.193379 2.4
vt 11 1.7
vt 11 11.7
vt 11 -6.3
vt 11 0
vt 11 2.4
vt -11 11.7
vt -11 1.7
vt -11 -6.3
vt -11 2.4
vt -11 0
vt 14.7 0
vt 14.7 2.4
vt 11 14.7
vt 5 14.7
vt -5 14.7
vt -11 14.7
vt -14.7 2.4
vt -14.7 0
vt -15 11.7
vt -15 1.7
vt -15 14.7
vt 15 11.7
vt 15 14.7
vt 15 0
vt 15 2.4
vt 15 1.7
vt 15 -6.3
vt -15 -6.3
vt -15 2.4
vt -15 0
vt 16.7 0
vt 16.7 2.4
vt 15 16.7
vt 11 16.7
vt -11 16.7
vt -15 16.7
vt -16.7 2.4
vt -16.7 0
vt -18 11.7
vt -18 1.7
vt -18 14.7
vt 18 11.7
vt 18 14.7
vt -18 16.7
vt 18 1.7
vt 18 -6.3
vt -18 -6.3
vt -18 2.4
vt -18 0
vt 18 16.7
vt 18 0
vt 18 2.4
vt 21.7 0
vt 21.7 2.4
vt 18 21.7
vt 15 21.7
vt -15 21.7
vt -18 21.7
vt -21.7 2.4
vt -21.7 0
vt 31 1.7
vt 31 11.7
vt 31 -6.3
vt 31 0
vt 31 2.4
vt -31 11.7
vt -31 1.7
vt -31 -6.3
vt -31 2.4
vt -31 0
vt 62 0
vt 62 2.4
vt 62 -6.3
vt 62 1.7
vt -62 1.7
vt -62 -6.3
vt -62 2.4
vt -62 0
vt 18 26.7
vt 15 26.7
vt 26.7 0
vt 26.7 2.4
vt 30.7 0
vt 30.7 2.4
vt 18 30.7
vt 15 30.7
vt -15 26.7
vt -18 26.7
vt -15 30.7
vt -18 30.7
vt -26.7 2.4
vt -26.7 0
vt -30.7 2.4
vt -30.7 0
vt 18 -1.6
vt 15 -1.6
vt -15 -1.6
vt -18 -1.6
vt -24 2.4
vt -24 0
vt -24 30.7
vt -24 26.7
vt 24 26.7
vt 24 30.7
vt 24 0
vt 24 2.4
vt 11 30.7
vt 11 26.7
vt -11 26.7
vt -11 30.7
vt -2 0
vt -2 2.4
vt 2 30.7
vt 2 26.7
vt -2 26.7
vt -2 30.7
vt 2 2.4
vt 2 0
vt 6 0
vt 6 2.4
vt -6 30.7
vt -6 26.7
vt 6 26.7
vt 6 30.7
vt -6 2.4
vt -6 0
vt -19.7 0
vt -19.7 2.4
vt 2 19.7
vt 11 19.7
vt -11 19.7
vt -2 19.7
vt -6 19.7
vt 6 19.7
vt 19.7 2.4
vt 19.7 0
vt -6 14.7
vt 2 14.7
vt -2 14.7
vt 6 14.7
vt -14 30.7
vt -14 26.7
vt 14 19.7
vt 14 26.7
vt -14 19.7
vt 14 0
vt 14 2.4
vt 14 30.7
vt -14 2.4
vt -14 0
vt -9 2.4
vt -9 0
vt 9 14.7
vt 9 19.7
vt -9 19.7
vt -9 14.7
vt 9 0
vt 9 2.4
vt 14 14.7
vt -14 14.7
vt -7.7 0
vt -7.7 2.4
vt -14 7.7
vt -9 7.7
vt 9 7.7
vt 14 7.7
vt 7.7 2.4
vt 7.7 0
vt 33 0
vt 33 2.4
vt -33 30.7
vt -33 26.7
vt 33 26.7
vt 33 30.7
vt -33 2.4
vt -33 0
vt 38 0
vt 38 2.4
vt -38 30.7
vt -38 26.7
vt 38 26.7
vt 38 30.7
vt -38 2.4
vt -38 0
vt 44 0
vt 44 2.4
vt -44 30.7
vt -44 26.7
vt 44 26.7
vt 44 30.7
vt -44 2.4
vt -44 0
vt -38 14.7
vt -33 14.7
vt 33 14.7
vt 38 14.7
vt -44 14.7
vt 44 14.7
vt -44 6.7
vt -38 6.7
vt 38 6.7
vt 44 6.7
vt 6.7 2.4
vt 6.7 0
vt -46 2.4
vt -46 0
vt 50 -6.3
vt 46 1.7
vt -46 1.7
vt -50 -6.3
vt 50 0
vt 50 2.4
vt 49 0
vt 49 2.4
vt -49 30.7
vt -49 26.7
vt 49 26.7
vt 49 30.7
vt -49 2.4
vt -49 0
vt 58 0
vt 58 2.4
vt -58 30.7
vt -58 26.7
vt 58 26.7
vt 58 30.7
vt -58 2.4
vt -58 0
vt -58 16.7
vt -49 16.7
vt 49 16.7
vt 58 16.7
vt 69 0
vt 69 2.4
vt -69 30.7
vt -69 26.7
vt 69 26.7
vt 69 30.7
vt -69 2.4
vt -69 0
vt -80 30.7
vt -80 26.7
vt 80 26.7
vt 80 30.7
vt -80 2.4
vt -80 0
vt -80 21.7
vt -69 21.7
vt 69 21.7
vt 80 21.7
vt -66.94788 2.4
vt -66.94788 0
vt -62.47574 2.4
vt -62.47574 0
vt 66 17.7
vt 62 15.7
vt 73 5.7
vt 69 3.7
vt 31.57112 2.4
vt 17.67867 2.4
vt 31.57112 -0.001211166
vt 17.67867 -0.001211166
vt -17.9666 2.4
vt -31.85905 2.4
vt -17.9666 -0.001211166
vt -31.85905 -0.001211166
vt 67.84231 2.4
vt 63.37017 2.4
vt 67.84231 -0.001211166
vt 63.37017 -0.001211166
vt -62 15.7
vt -66 17.7
vt -69 3.7
vt -73 5.7
vt 80 2.4
vt 80 -0.6000004
vt 69 -0.6000004
vt -37 2.4
vt -37 0
vt -37 30.7
vt -37 26.7
vt 37 26.7
vt 37 30.7
vt -55 2.4
vt -55 0
vt -55 30.7
vt -55 26.7
vt 55 26.7
vt 55 30.7
vt 55 0
vt 55 2.4
vt 18.7 2.4
vt 18.7 0
vt -37 18.7
vt -24 18.7
vt 24 18.7
vt 37 18.7
vt -55 18.7
vt 55 18.7
vt -18.7 0
vt -18.7 2.4
vt 8.7 2.4
vt 8.7 0
vt -55 8.7
vt -37 8.7
vt 37 8.7
vt 55 8.7
vt -8.7 0
vt -8.7 2.4

vn 0 0 1
vn -1 0 0
vn 0 0 -1
vn 1 0 0
vn 0 1 0
vn 0 -1 0
vn -0.8944272 0 0.4472136
vn -0.7808688 0 0.6246951
vn -0.9138116 0 0.4061385
vn 0.4472138 0 0.8944271
vn 0.8637789 0 -0.503871
vn -0.8637789 0 0.503871
vn -0.4472136 0 -0.8944272

usemtl ProBuilderDefault
f 3/3/1 4/4/1 2/2/1 1/1/1
f 4/7/2 6/8/2 5/6/2 2/5/2
f 9/3/3 10/4/3 8/2/3 7/1/3
f 13/11/4 14/12/4 12/10/4 11/9/4
f 15/15/5 6/16/5 4/14/5 3/13/5
f 1/14/6 2/13/6 5/15/6 16/16/6
f 7/17/6 8/18/6 16/16/6 5/15/6
f 19/21/7 20/22/7 18/20/7 17/19/7
f 23/23/4 24/24/4 22/11/4 21/9/4
f 10/17/5 9/18/5 6/16/5 15/15/5
f 25/25/1 26/26/1 5/2/1 6/4/1
f 27/27/5 25/28/5 6/16/5 9/18/5
f 26/29/6 28/30/6 7/17/6 5/15/6
f 28/31/3 27/32/3 9/3/3 7/1/3
f 31/33/1 32/34/1 30/26/1 29/25/1
f 33/35/5 34/36/5 25/28/5 27/27/5
f 35/37/6 36/38/6 28/30/6 26/29/6
f 36/39/3 33/40/3 27/32/3 28/31/3
f 37/41/4 38/42/4 26/9/4 25/11/4
f 39/43/5 37/44/5 25/28/5 34/36/5
f 38/45/6 40/46/6 35/37/6 26/29/6
f 40/49/8 39/50/8 34/48/8 35/47/8
f 29/51/4 30/52/4 38/42/4 37/41/4
f 31/53/5 29/54/5 37/44/5 39/43/5
f 30/55/6 32/56/6 40/46/6 38/45/6
f 32/59/9 31/60/9 39/58/9 40/57/9
f 41/61/6 42/62/6 1/14/6 16/16/6
f 43/63/6 41/61/6 16/16/6 8/18/6
f 46/64/1 47/65/1 45/3/1 44/1/1
f 48/66/5 49/67/5 15/15/5 3/13/5
f 49/67/5 50/68/5 10/17/5 15/15/5
f 50/69/3 43/70/3 8/2/3 10/4/3
f 44/71/2 45/72/2 3/7/2 1/5/2
f 46/73/6 44/74/6 1/14/6 42/62/6
f 45/75/5 47/76/5 48/66/5 3/13/5
f 53/77/4 54/78/4 52/10/4 51/12/4
f 55/79/5 56/80/5 49/67/5 48/66/5
f 57/81/5 55/79/5 48/66/5 47/76/5
f 58/82/6 59/83/6 46/73/6 42/62/6
f 62/84/1 63/85/1 61/65/1 60/64/1
f 64/86/6 58/82/6 42/62/6 41/61/6
f 65/87/6 64/86/6 41/61/6 43/63/6
f 56/80/5 66/88/5 50/68/5 49/67/5
f 66/89/3 65/90/3 43/70/3 50/69/3
f 60/91/2 61/92/2 47/72/2 46/71/2
f 62/93/6 60/94/6 46/73/6 59/83/6
f 61/95/5 63/96/5 57/81/5 47/76/5
f 67/97/4 68/98/4 54/78/4 53/77/4
f 51/99/5 69/100/5 56/80/5 55/79/5
f 53/101/5 51/99/5 55/79/5 57/81/5
f 52/102/6 54/103/6 59/83/6 58/82/6
f 67/104/5 53/101/5 57/81/5 63/96/5
f 70/105/6 52/102/6 58/82/6 64/86/6
f 71/106/6 70/105/6 64/86/6 65/87/6
f 69/100/5 72/107/5 66/88/5 56/80/5
f 72/108/3 71/109/3 65/90/3 66/89/3
f 54/103/6 68/110/6 62/93/6 59/83/6
f 75/111/1 76/112/1 74/85/1 73/84/1
f 77/113/2 78/114/2 63/92/2 62/91/2
f 79/115/6 77/116/6 62/93/6 68/110/6
f 78/117/5 80/118/5 67/104/5 63/96/5
f 80/119/4 79/120/4 68/98/4 67/97/4
f 11/121/6 12/122/6 52/102/6 70/105/6
f 81/123/6 11/121/6 70/105/6 71/106/6
f 12/124/1 14/125/1 51/112/1 52/111/1
f 14/126/5 13/127/5 69/100/5 51/99/5
f 13/127/5 82/128/5 72/107/5 69/100/5
f 82/129/3 81/130/3 71/109/3 72/108/3
f 21/131/1 22/132/1 13/125/1 11/124/1
f 23/133/6 21/134/6 11/121/6 81/123/6
f 22/135/5 24/136/5 82/128/5 13/127/5
f 24/137/3 23/138/3 81/130/3 82/129/3
f 83/139/6 84/140/6 77/116/6 79/115/6
f 87/143/2 88/144/2 86/142/2 85/141/2
f 75/145/6 73/146/6 84/140/6 83/139/6
f 74/149/5 76/150/5 90/148/5 89/147/5
f 93/153/4 94/154/4 92/152/4 91/151/4
f 96/156/1 95/155/1 80/112/1 78/85/1
f 98/158/3 97/157/3 89/89/3 90/108/3
f 99/159/3 100/160/3 83/109/3 90/108/3
f 101/161/5 99/162/5 90/148/5 76/150/5
f 100/163/6 102/164/6 75/145/6 83/139/6
f 102/165/1 101/166/1 76/112/1 75/111/1
f 103/70/3 104/69/3 89/89/3 84/90/3
f 105/167/6 103/168/6 84/140/6 73/146/6
f 104/169/5 106/170/5 74/149/5 89/147/5
f 106/65/1 105/64/1 73/84/1 74/85/1
f 109/171/3 110/172/3 108/69/3 107/70/3
f 111/173/6 112/174/6 103/168/6 105/167/6
f 113/175/5 114/176/5 106/170/5 104/169/5
f 114/177/1 111/178/1 105/64/1 106/65/1
f 117/179/3 118/180/3 116/172/3 115/171/3
f 119/181/6 120/182/6 112/174/6 111/173/6
f 121/183/5 122/184/5 114/176/5 113/175/5
f 122/185/1 119/186/1 111/178/1 114/177/1
f 107/187/4 108/188/4 104/151/4 103/152/4
f 109/189/6 107/190/6 103/168/6 112/174/6
f 108/191/5 110/192/5 113/175/5 104/169/5
f 123/193/6 109/189/6 112/174/6 120/182/6
f 110/192/5 124/194/5 121/183/5 113/175/5
f 127/195/2 128/196/2 126/141/2 125/142/2
f 115/78/4 116/77/4 110/188/4 109/187/4
f 117/197/6 115/198/6 109/189/6 123/193/6
f 116/199/5 118/200/5 124/194/5 110/192/5
f 129/72/2 130/71/2 128/196/2 127/195/2
f 131/201/6 126/202/6 120/182/6 119/181/6
f 127/203/5 125/204/5 121/183/5 124/194/5
f 126/202/6 128/205/6 123/193/6 120/182/6
f 128/206/3 127/207/3 124/180/3 123/179/3
f 125/204/5 132/208/5 122/184/5 121/183/5
f 132/209/1 131/210/1 119/186/1 122/185/1
f 133/211/1 134/212/1 123/186/1 124/185/1
f 135/213/5 133/214/5 124/194/5 118/200/5
f 134/215/6 136/216/6 117/197/6 123/193/6
f 136/217/3 135/218/3 118/180/3 117/179/3
f 127/209/1 128/210/1 134/212/1 133/211/1
f 129/219/5 127/203/5 133/214/5 135/213/5
f 128/205/6 130/220/6 136/216/6 134/215/6
f 139/206/3 140/207/3 138/218/3 137/217/3
f 137/221/4 138/222/4 135/77/4 136/78/4
f 139/223/6 137/224/6 136/216/6 130/220/6
f 138/225/5 140/226/5 129/219/5 135/213/5
f 140/227/2 139/228/2 130/71/2 129/72/2
f 141/229/3 142/230/3 125/207/3 126/206/3
f 143/231/6 141/232/6 126/202/6 131/201/6
f 142/233/5 144/234/5 132/208/5 125/204/5
f 144/235/1 143/236/1 131/210/1 132/209/1
f 147/237/3 148/238/3 146/230/3 145/229/3
f 149/239/6 150/240/6 141/232/6 143/231/6
f 151/241/5 152/242/5 144/234/5 142/233/5
f 152/243/1 149/244/1 143/236/1 144/235/1
f 155/245/3 156/246/3 154/238/3 153/237/3
f 157/247/6 158/248/6 150/240/6 149/239/6
f 159/249/5 160/250/5 152/242/5 151/241/5
f 160/251/1 157/252/1 149/244/1 152/243/1
f 145/78/4 146/77/4 142/151/4 141/152/4
f 147/253/6 145/254/6 141/232/6 150/240/6
f 146/255/5 148/256/5 151/241/5 142/233/5
f 161/257/6 147/253/6 150/240/6 158/248/6
f 148/256/5 162/258/5 159/249/5 151/241/5
f 162/72/2 161/71/2 158/141/2 159/142/2
f 153/42/4 154/41/4 148/77/4 147/78/4
f 155/259/6 153/260/6 147/253/6 161/257/6
f 154/261/5 156/262/5 162/258/5 148/256/5
f 156/263/2 155/264/2 161/71/2 162/72/2
f 17/265/1 18/266/1 35/236/1 34/235/1
f 19/267/5 17/268/5 34/36/5 33/35/5
f 18/269/6 20/270/6 36/38/6 35/37/6
f 20/271/3 19/272/3 33/40/3 36/39/3
f 163/273/3 164/274/3 159/246/3 158/245/3
f 165/275/6 163/276/6 158/248/6 157/247/6
f 164/277/5 166/278/5 160/250/5 159/249/5
f 166/279/1 165/280/1 157/252/1 160/251/1
f 169/281/3 170/282/3 168/274/3 167/273/3
f 171/283/6 172/284/6 163/276/6 165/275/6
f 173/285/5 174/286/5 166/278/5 164/277/5
f 174/287/1 171/288/1 165/280/1 166/279/1
f 167/98/4 168/97/4 164/151/4 163/152/4
f 169/289/6 167/290/6 163/276/6 172/284/6
f 168/291/5 170/292/5 173/285/5 164/277/5
f 170/92/2 169/91/2 172/141/2 173/142/2
f 175/293/3 176/294/3 173/282/3 172/281/3
f 177/295/6 175/296/6 172/284/6 171/283/6
f 176/297/5 178/298/5 174/286/5 173/285/5
f 178/299/1 177/300/1 171/288/1 174/287/1
f 87/301/6 85/302/6 175/296/6 177/295/6
f 86/303/5 88/304/5 178/298/5 176/297/5
f 88/305/1 87/306/1 177/300/1 178/299/1
f 179/120/4 180/119/4 176/151/4 175/152/4
f 181/307/6 179/308/6 175/296/6 85/302/6
f 180/309/5 182/310/5 86/303/5 176/297/5
f 182/114/2 181/113/2 85/141/2 86/142/2
f 186/314/10 185/313/10 183/311/10 184/312/10
f 188/318/5 187/317/5 183/315/5 185/316/5
f 190/322/11 189/321/11 188/319/11 185/320/11
f 192/326/12 191/325/12 183/323/12 187/324/12
f 189/330/13 192/329/13 187/327/13 188/328/13
f 194/334/6 193/333/6 186/331/6 184/332/6
f 196/337/3 195/336/3 182/335/3 180/294/3
f 199/338/3 200/339/3 198/160/3 197/159/3
f 201/340/5 202/341/5 99/162/5 101/161/5
f 203/342/6 204/343/6 102/164/6 100/163/6
f 204/39/1 201/40/1 101/166/1 102/165/1
f 207/344/3 208/345/3 206/339/3 205/338/3
f 93/346/5 91/347/5 202/341/5 201/340/5
f 92/348/6 94/349/6 204/343/6 203/342/6
f 94/350/1 93/351/1 201/40/1 204/39/1
f 197/352/2 198/353/2 100/141/2 99/142/2
f 199/354/5 197/355/5 99/162/5 202/341/5
f 198/356/6 200/357/6 203/342/6 100/163/6
f 209/358/5 199/354/5 202/341/5 91/347/5
f 200/357/6 210/359/6 92/348/6 203/342/6
f 210/360/4 209/361/4 91/151/4 92/152/4
f 205/362/2 206/363/2 200/353/2 199/352/2
f 207/364/5 205/365/5 199/354/5 209/358/5
f 206/366/6 208/367/6 210/359/6 200/357/6
f 208/368/4 207/369/4 209/361/4 210/360/4

